<svg xmlns="http://www.w3.org/2000/svg" width="41.652" height="41.652" viewBox="0 0 41.652 41.652">
  <g id="Group_2440" data-name="Group 2440" transform="translate(-180.664 -199.773)">
    <rect id="Rectangle_106" data-name="Rectangle 106" width="25.414" height="3.591" rx="1.795" transform="translate(190.146 218.804)" fill="#b5b5b5"/>
    <path id="Path_52" data-name="Path 52" d="M221.288,257.905l9.178-9.178a1.8,1.8,0,0,0,0-2.539h0a1.8,1.8,0,0,0-2.539,0l-10.441,10.441-.007.006a1.8,1.8,0,0,0,0,2.54l.007.006,10.441,10.441a1.8,1.8,0,0,0,2.539,0h0a1.8,1.8,0,0,0,0-2.539Z" transform="translate(-29.502 -37.306)" fill="#b5b5b5"/>
    <path id="Path_53" data-name="Path 53" d="M201.49,203.391A17.208,17.208,0,1,1,184.282,220.6a17.208,17.208,0,0,1,17.208-17.208m0-3.618A20.826,20.826,0,1,0,222.316,220.6a20.85,20.85,0,0,0-20.826-20.826Z" transform="translate(0 0)" fill="#b5b5b5"/>
  </g>
</svg>
