<svg id="Group_30" data-name="Group 30" xmlns="http://www.w3.org/2000/svg" width="33.733" height="33.727" viewBox="0 0 33.733 33.727">
  <path id="Path_6" data-name="Path 6" d="M1012.119,277.449A16.867,16.867,0,1,1,995.6,260.6,16.861,16.861,0,0,1,1012.119,277.449Zm-16.746,9.563v.016c.7,0,1.406.019,2.108,0a27.728,27.728,0,0,0,2.8-.156,4.923,4.923,0,0,0,4.366-3.96,11.6,11.6,0,0,0,.235-2.272c.032-2.058.024-4.117.008-6.175a13.508,13.508,0,0,0-.141-1.913,4.814,4.814,0,0,0-3.382-4.174,8.011,8.011,0,0,0-2.354-.357c-2.66-.038-5.322-.026-7.983.016a5.72,5.72,0,0,0-1.722.35,5.064,5.064,0,0,0-3.414,4.979c-.065,2.229-.076,4.461-.067,6.691a15.25,15.25,0,0,0,.208,2.644,4.71,4.71,0,0,0,3.545,3.967,11.527,11.527,0,0,0,2.508.334C993.178,287.053,994.277,287.012,995.374,287.012Z" transform="translate(-978.386 -260.6)"/>
  <path id="Path_7" data-name="Path 7" d="M1118.6,391.406c-.049,1.5-.059,2.99-.155,4.476a3.266,3.266,0,0,1-3.289,3.2c-2.732.072-5.466.082-8.2.066a4.107,4.107,0,0,1-2.6-.788,3.257,3.257,0,0,1-1.273-2.562c-.066-2.66-.076-5.322-.069-7.983a5.08,5.08,0,0,1,.439-2.224,3.037,3.037,0,0,1,2.45-1.791,23.907,23.907,0,0,1,2.946-.167q2.662-.031,5.325.019a8.126,8.126,0,0,1,1.86.236,3.2,3.2,0,0,1,2.41,3.018C1118.536,388.405,1118.556,389.909,1118.6,391.406Zm-7.823,4.9a4.9,4.9,0,1,0-4.915-4.913A4.864,4.864,0,0,0,1110.781,396.3Zm5.087-11.135a1.156,1.156,0,0,0-1.179,1.163,1.2,1.2,0,0,0,1.163,1.154,1.144,1.144,0,0,0,1.156-1.145A1.109,1.109,0,0,0,1115.869,385.168Z" transform="translate(-1093.799 -374.519)"/>
  <path id="Path_8" data-name="Path 8" d="M1168.212,452.37a3.163,3.163,0,1,1,3.16-3.152A3.2,3.2,0,0,1,1168.212,452.37Z" transform="translate(-1151.235 -432.326)"/>
</svg>
